<svg width="18" height="18" viewBox="0 0 18 18" fill="none" xmlns="http://www.w3.org/2000/svg">
<path d="M17.8 8.99139C17.8 4.13819 13.8576 0.200195 9 0.200195C4.1424 0.200195 0.199997 4.13819 0.199997 8.99139C0.199997 11.6644 1.4144 14.0734 3.3152 15.6904C3.3328 15.708 3.3504 15.708 3.3504 15.7256C3.5088 15.8488 3.6672 15.972 3.8432 16.0952C3.9312 16.148 4.0016 16.2173 4.0896 16.2877C5.54387 17.2737 7.26058 17.8006 9.0176 17.8002C10.7746 17.8006 12.4913 17.2737 13.9456 16.2877C14.0336 16.2349 14.104 16.1656 14.192 16.1117C14.3504 15.9896 14.5264 15.8664 14.6848 15.7432C14.7024 15.7256 14.72 15.7256 14.72 15.708C16.5856 14.0723 17.8 11.6644 17.8 8.99139ZM9 16.6925C7.3456 16.6925 5.832 16.1645 4.5824 15.2856C4.6 15.1448 4.6352 15.0051 4.6704 14.8643C4.77527 14.4827 4.92908 14.1163 5.128 13.7742C5.3216 13.4398 5.5504 13.1406 5.832 12.8766C6.096 12.6126 6.4128 12.3673 6.7296 12.1737C7.064 11.9801 7.416 11.8393 7.8032 11.7337C8.19341 11.6285 8.59586 11.5756 9 11.5764C10.1997 11.5679 11.3553 12.0281 12.2208 12.859C12.6256 13.2638 12.9424 13.739 13.1712 14.2835C13.2944 14.6003 13.3824 14.9347 13.4352 15.2856C12.1363 16.1988 10.5878 16.69 9 16.6925ZM6.3072 8.55249C6.15212 8.19744 6.07414 7.81352 6.0784 7.42609C6.0784 7.03999 6.1488 6.65279 6.3072 6.30079C6.4656 5.94879 6.6768 5.63309 6.9408 5.36909C7.2048 5.10509 7.5216 4.895 7.8736 4.7366C8.2256 4.5782 8.6128 4.50779 9 4.50779C9.4048 4.50779 9.7744 4.5782 10.1264 4.7366C10.4784 4.895 10.7952 5.10619 11.0592 5.36909C11.3232 5.63309 11.5344 5.94989 11.6928 6.30079C11.8512 6.65279 11.9216 7.03999 11.9216 7.42609C11.9216 7.83089 11.8512 8.20049 11.6928 8.55139C11.5399 8.89819 11.3252 9.21427 11.0592 9.48419C10.7892 9.74983 10.4731 9.96416 10.1264 10.1167C9.39911 10.4156 8.58329 10.4156 7.856 10.1167C7.50929 9.96416 7.19321 9.74983 6.9232 9.48419C6.65679 9.2182 6.44722 8.90085 6.3072 8.55139V8.55249ZM14.4736 14.3891C14.4736 14.3539 14.456 14.3363 14.456 14.3011C14.2829 13.7505 14.0278 13.2291 13.6992 12.7545C13.3703 12.2764 12.9661 11.8548 12.5024 11.506C12.1482 11.2396 11.7643 11.0151 11.3584 10.8372C11.5431 10.7154 11.7142 10.5741 11.8688 10.4159C12.1312 10.1568 12.3616 9.86732 12.5552 9.55349C12.945 8.91308 13.1463 8.17573 13.136 7.42609C13.1414 6.87116 13.0336 6.32095 12.8192 5.80909C12.6075 5.3159 12.3027 4.86811 11.9216 4.4902C11.541 4.11623 11.0932 3.81764 10.6016 3.61019C10.0889 3.39613 9.53796 3.28871 8.9824 3.2945C8.42675 3.28906 7.87582 3.39685 7.3632 3.61129C6.86738 3.8183 6.41842 4.12322 6.0432 4.50779C5.66924 4.88794 5.37065 5.33546 5.1632 5.82669C4.94875 6.33855 4.84095 6.88876 4.8464 7.44369C4.8464 7.83089 4.8992 8.20049 5.0048 8.55139C5.1104 8.92099 5.2512 9.25539 5.4448 9.57109C5.6208 9.88789 5.8672 10.1695 6.1312 10.4335C6.2896 10.5919 6.4656 10.7316 6.6592 10.8548C6.25202 11.0375 5.86799 11.2679 5.5152 11.5412C5.0576 11.8932 4.6528 12.3145 4.3184 12.7721C3.98648 13.2447 3.73108 13.7666 3.5616 14.3187C3.544 14.3539 3.544 14.3891 3.544 14.4067C2.1536 12.9998 1.2912 11.1012 1.2912 8.99139C1.2912 4.7542 4.7584 1.2903 9 1.2903C13.2416 1.2903 16.7088 4.7542 16.7088 8.99139C16.7065 11.0153 15.9028 12.956 14.4736 14.3891Z" fill="#BDBDBD"/>
</svg>
