<?xml version="1.0" encoding="iso-8859-1"?>
<svg version="1.1" id="Capa_1" xmlns="http://www.w3.org/2000/svg" xmlns:xlink="http://www.w3.org/1999/xlink" viewBox="0 0 512 512" xml:space="preserve">
    <rect x="79.45" y="379.85" style="fill:#533222;" width="353.1" height="44.14" />
    <rect x="79.45" y="379.85" style="fill:#5B3726;" width="353.1" height="17.655" />
    <rect y="88.01" style="fill:#744630;" width="512" height="300.67" />
    <g>
        <polygon style="fill:#5B3726;" points="512,388.467 512,376.002 474.094,338.273 461.63,350.791 499.694,388.67 511.788,388.67 	
		" />
        <polygon style="fill:#5B3726;" points="0,376.373 0,388.467 0.212,388.67 12.668,388.67 50.397,350.764 37.879,338.308 	" />
    </g>
    <g>
        <rect id="SVGCleanerId_0" x="35.31" y="114.81" style="fill:#1E7C6B;" width="441.38" height="238.52" />
    </g>
    <g>
        <polygon style="fill:#5B3726;" points="0,92.195 46.724,138.911 59.207,126.429 20.789,88.011 0,88.011 	" />
        <polygon style="fill:#5B3726;" points="512,88.011 491.211,88.011 461.621,117.601 474.103,130.083 512,92.195 	" />
    </g>
    <g>
        <rect id="SVGCleanerId_0_1_" x="35.31" y="114.81" style="fill:#1E7C6B;" width="441.38" height="238.52" />
    </g>
    <g>

        <rect id="SVGCleanerId_0_2_" x="35.31" y="114.81" style="fill:none;stroke:#1E7C6B;stroke-miterlimit:10;" width="441.38" height="238.52" />
    </g>
    <rect x="326.62" y="291.57" style="fill:#3B869E;" width="114.76" height="61.793" />
    <rect x="423.72" y="291.57" style="fill:#1F6C8C;" width="17.655" height="61.793" />
    <polygon style="fill:#DBDBDB;" points="280.505,353.359 256,335.81 297.075,275.482 321.571,293.041 " />
    <path style="fill:#208673;" d="M476.69,132.096v-17.284H35.31v236.42C159.055,325.235,360.51,264.492,476.69,132.096z" />
    <g></g>
    <g></g>
    <g></g>
    <g></g>
    <g></g>
    <g></g>
    <g></g>
    <g></g>
    <g></g>
    <g></g>
    <g></g>
    <g></g>
    <g></g>
    <g></g>
    <g></g>
</svg>
