<?xml version="1.0"?>
<svg xmlns="http://www.w3.org/2000/svg" viewBox="0 0 512 512" style="enable-background:new 0 0 512 512" xml:space="preserve" class="">
    <g>
        <link type="text/css" rel="stylesheet" id="dark-mode-custom-link" />
        <link type="text/css" rel="stylesheet" id="dark-mode-general-link" />
        <style lang="en" type="text/css" id="dark-mode-custom-style" />
        <style lang="en" type="text/css" id="dark-mode-native-style" />
        <g xmlns="http://www.w3.org/2000/svg">
            <g>
                <path d="M503.462,81.079H8.538C3.825,81.079,0,84.904,0,89.616v299.128c0,4.713,3.825,8.538,8.538,8.538H76.84v25.101    c0,4.713,3.825,8.538,8.538,8.538h341.51c4.713,0,8.538-3.825,8.538-8.538v-25.101h68.037c4.713,0,8.538-3.825,8.538-8.538V89.616    C512,84.904,508.175,81.079,503.462,81.079z M482.886,98.154l-16.469,16.666H46.198L29.327,98.154H482.886z M426.887,294.112    h-93.915c-1.921,0-3.611,0.751-5.037,1.827c0.06-2.732-1.033-5.439-3.407-7.146l-23.701-16.973c-1.87-1.34-4.201-1.878-6.463-1.46    c-2.263,0.401-4.269,1.699-5.567,3.594l-39.718,58.347c-2.613,3.833-1.682,9.041,2.083,11.739l2.092,1.494H51.226v-213.64h409.812    v213.649h-25.613V302.65C435.425,297.937,431.6,294.112,426.887,294.112z M418.349,311.188v34.356h-76.84v-34.356H418.349z     M324.434,303.735v41.809h-28.465L324.434,303.735z M277.69,342.052l-9.81-7.027l30.113-44.234l9.81,7.027L277.69,342.052z     M17.076,110.056l17.076,16.871v223.45l-17.076,17.28V110.056z M418.349,413.846H93.915v-16.563h324.434V413.846z     M426.887,380.207H85.377H28.678l17.374-17.588h286.919h93.915h38.975l17.801,17.588H426.887z M494.924,367.324l-16.811-16.606    V127.276l16.811-17.016V367.324z" fill="#afafaf" data-original="#000000" style="" class="" />
            </g>
        </g>
        <g xmlns="http://www.w3.org/2000/svg"></g>
        <g xmlns="http://www.w3.org/2000/svg"></g>
        <g xmlns="http://www.w3.org/2000/svg"></g>
        <g xmlns="http://www.w3.org/2000/svg"></g>
        <g xmlns="http://www.w3.org/2000/svg"></g>
        <g xmlns="http://www.w3.org/2000/svg"></g>
        <g xmlns="http://www.w3.org/2000/svg"></g>
        <g xmlns="http://www.w3.org/2000/svg"></g>
        <g xmlns="http://www.w3.org/2000/svg"></g>
        <g xmlns="http://www.w3.org/2000/svg"></g>
        <g xmlns="http://www.w3.org/2000/svg"></g>
        <g xmlns="http://www.w3.org/2000/svg"></g>
        <g xmlns="http://www.w3.org/2000/svg"></g>
        <g xmlns="http://www.w3.org/2000/svg"></g>
        <g xmlns="http://www.w3.org/2000/svg"></g>
    </g>
</svg>
