<svg width="46" height="46" viewBox="0 0 46 46" fill="none" xmlns="http://www.w3.org/2000/svg"><path d="M23.5 6.70117C25.7091 6.70117 27.5 8.49203 27.5 10.7012V22.7012C27.5 24.9103 25.7091 26.7012 23.5 26.7012H16.2143L12.0185 31.5962C10.8101 33.006 8.5 32.1515 8.5 30.2947V26.7012H7.5C5.29086 26.7012 3.5 24.9103 3.5 22.7012V10.7012C3.5 8.49203 5.29086 6.70117 7.5 6.70117H23.5Z" fill="#078FCF"/><path d="M22.5 13.7012C20.2909 13.7012 18.5 15.492 18.5 17.7012V29.7012C18.5 31.9103 20.2909 33.7012 22.5 33.7012H29.7857L33.9815 38.5962C35.1899 40.006 37.5 39.1515 37.5 37.2947V33.7012H38.5C40.7091 33.7012 42.5 31.9103 42.5 29.7012V17.7012C42.5 15.492 40.7091 13.7012 38.5 13.7012H22.5Z" fill="#1CB0F6"/></svg>