<svg width="47" height="46" viewBox="0 0 47 46" fill="none" xmlns="http://www.w3.org/2000/svg"><path fill-rule="evenodd" clip-rule="evenodd" d="M17.2104 24.7012H16.2905L15.6919 25.3996L11.4961 30.2947L11.4961 26.7012V24.7012H9.49609H8.49609C7.39152 24.7012 6.49609 23.8057 6.49609 22.7012V10.7012C6.49609 9.5966 7.39152 8.70117 8.49609 8.70117H24.4961C25.6007 8.70117 26.4961 9.5966 26.4961 10.7012V13.7012H28.4961V10.7012C28.4961 8.49203 26.7052 6.70117 24.4961 6.70117H8.49609C6.28695 6.70117 4.49609 8.49203 4.49609 10.7012V22.7012C4.49609 24.9103 6.28695 26.7012 8.49609 26.7012H9.49609V28.7012V30.2947C9.49609 32.1515 11.8062 33.006 13.0146 31.5962L17.2104 26.7012H19.4961V24.7012H17.2104Z" fill="#AFAFAF"/><path d="M31.5411 33.0504L31.2417 32.7012H30.7818H23.4961C21.8392 32.7012 20.4961 31.358 20.4961 29.7012V17.7012C20.4961 16.0443 21.8392 14.7012 23.4961 14.7012H39.4961C41.1529 14.7012 42.4961 16.0443 42.4961 17.7012V29.7012C42.4961 31.358 41.1529 32.7012 39.4961 32.7012H38.4961H37.4961V33.7012V37.2947C37.4961 38.2231 36.341 38.6503 35.7368 37.9454L31.5411 33.0504Z" stroke="#AFAFAF" stroke-width="2"/></svg>