<svg width="20" height="20" viewBox="0 0 20 20" fill="none" xmlns="http://www.w3.org/2000/svg">
<path d="M15.7489 9.91229L15.7487 9.91256C15.4586 10.4416 14.8953 10.7918 14.2542 10.7918H7.42501H7.3511L7.31548 10.8566L6.30715 12.6899L6.20526 12.8752H6.41667H17.2917V14.4585H6.41667C5.11951 14.4585 4.29811 13.0672 4.92206 11.9212C4.92213 11.9211 4.9222 11.9209 4.92227 11.9208L6.15938 9.68485L6.19043 9.62872L6.16295 9.57076L2.86295 2.61326L2.82906 2.54183H2.75001H1.04167V0.958496H3.8348L4.66271 2.72L4.69647 2.79183H4.77584H18.3424C18.4797 2.7919 18.6145 2.82779 18.7335 2.89596C18.8526 2.96413 18.9518 3.06221 19.0214 3.1805L19.1291 3.11715L19.0214 3.1805C19.0909 3.29879 19.1284 3.43318 19.13 3.57038C19.1316 3.70758 19.0974 3.84283 19.0308 3.96275L19.0306 3.96312L15.7489 9.91229ZM5.64667 4.37516H5.44909L5.53372 4.5537L7.70622 9.13704L7.74009 9.2085H7.81917H14.2542H14.328L14.3636 9.1439L16.8936 4.56057L16.996 4.37516H16.7842H5.64667ZM4.71751 17.3335C4.71751 16.3934 5.47819 15.6252 6.41667 15.6252C7.35597 15.6252 8.12501 16.3942 8.12501 17.3335C8.12501 18.2728 7.35597 19.0418 6.41667 19.0418C5.47819 19.0418 4.71751 18.2736 4.71751 17.3335ZM13.8842 17.3335C13.8842 16.3934 14.6449 15.6252 15.5833 15.6252C16.5226 15.6252 17.2917 16.3942 17.2917 17.3335C17.2917 18.2728 16.5226 19.0418 15.5833 19.0418C14.6449 19.0418 13.8842 18.2736 13.8842 17.3335Z" fill="#BDBDBD" stroke="white" stroke-width="0.25"/>
</svg>
