<svg width="47" height="46" viewBox="0 0 47 46" fill="none" xmlns="http://www.w3.org/2000/svg"><path d="M5.99609 10.3636C5.99609 8.49375 7.48912 7 9.30379 7H17.9961V17H6.99609C6.44381 17 5.99609 16.5523 5.99609 16V10.3636Z" stroke="#AFAFAF" stroke-width="2"/><path d="M11.4961 23C8.69416 23 6.19926 20.4628 6.00788 17H16.9843C16.7929 20.4628 14.298 23 11.4961 23Z" stroke="#AFAFAF" stroke-width="2"/><path d="M23.9961 23C20.8678 23 18.216 20.3996 18.0091 17H29.9831C29.7762 20.3996 27.1244 23 23.9961 23Z" stroke="#AFAFAF" stroke-width="2"/><path d="M35.9961 23C32.8678 23 30.216 20.3996 30.0091 17H41.9831C41.7762 20.3996 39.1244 23 35.9961 23Z" stroke="#AFAFAF" stroke-width="2"/><path fill-rule="evenodd" clip-rule="evenodd" d="M6.99609 21.9318V35.9999C6.99609 38.2091 8.73579 39.9999 10.8818 39.9999H37.1104C39.2564 39.9999 40.9961 38.2091 40.9961 35.9999V21.7703C40.422 22.392 39.7457 22.9071 38.9961 23.285V35.9999C38.9961 37.1595 38.0976 37.9999 37.1104 37.9999H10.8818C9.89461 37.9999 8.99609 37.1595 8.99609 35.9999V23.4306C8.24849 23.0743 7.57158 22.563 6.99609 21.9318Z" fill="#AFAFAF"/><path d="M17.9961 7H29.9961V17H17.9961V7Z" stroke="#AFAFAF" stroke-width="2"/><path d="M29.9961 7H38.6884C40.5031 7 41.9961 8.49375 41.9961 10.3636V16C41.9961 16.5523 41.5484 17 40.9961 17H29.9961V7Z" stroke="#AFAFAF" stroke-width="2"/><path d="M12.9961 30C12.9961 29.4477 13.4438 29 13.9961 29H18.9961C19.5484 29 19.9961 29.4477 19.9961 30V39H12.9961V30Z" stroke="#AFAFAF" stroke-width="2"/><path d="M25.9961 30C25.9961 29.4477 26.4438 29 26.9961 29H34.9961C35.5484 29 35.9961 29.4477 35.9961 30V34C35.9961 34.5523 35.5484 35 34.9961 35H26.9961C26.4438 35 25.9961 34.5523 25.9961 34V30Z" stroke="#AFAFAF" stroke-width="2"/></svg>